<?xml version="1.0"?>
<svg xmlns="http://www.w3.org/2000/svg" xmlns:xlink="http://www.w3.org/1999/xlink" xmlns:svgjs="http://svgjs.com/svgjs" version="1.1" width="512" height="512" x="0" y="0" viewBox="0 0 512 512" style="enable-background:new 0 0 512 512" xml:space="preserve" class=""><g><path xmlns="http://www.w3.org/2000/svg" d="m323.303 31h-133.799c-5.361 0-10.313 2.856-12.993 7.5s-2.681 10.356 0 15l143.042 247.5h168.726l-151.998-262.515c-2.68-4.629-7.632-7.485-12.978-7.485z" fill="#ffffff" data-original="#000000" style="" class=""/><path xmlns="http://www.w3.org/2000/svg" d="m154.034 75.947-152.011 262.538c-2.622 4.512-2.695 10.049-.22 14.648l64.805 120c2.578 4.775 7.544 7.793 12.979 7.866h.22c5.347 0 10.313-2.856 12.993-7.5l145.494-251.757z" fill="#ffffff" data-original="#000000" style="" class=""/><path xmlns="http://www.w3.org/2000/svg" d="m509.88 338.31c-2.695-4.526-7.588-7.31-12.876-7.31h-286.41l-86.678 150h308.284c5.508 0 10.576-3.018 13.198-7.866l64.805-120c2.504-4.658 2.387-10.283-.323-14.824z" fill="#ffffff" data-original="#000000" style="" class=""/></g></svg>
