<svg xmlns="http://www.w3.org/2000/svg" width="512" height="512" viewBox="0 0 512 512.011"><path xmlns="http://www.w3.org/2000/svg" d="M400.004 512.012h-288c-26.473 0-48-21.528-48-48V277.344H26.672c-14.7 0-26.668-11.969-26.668-26.668 0-7.059 2.883-13.973 7.894-18.985L244.934 4.45c6.187-5.933 15.957-5.933 22.144 0l236.8 226.985c5.247 5.27 8.126 12.183 8.126 19.242 0 14.699-11.965 26.668-26.664 26.668h-37.336v186.668c0 26.472-21.524 48-48 48zM39.879 245.344h40.125c8.832 0 16 7.168 16 16v202.668c0 8.832 7.168 16 16 16h288c8.832 0 16-7.168 16-16V261.344c0-8.832 7.168-16 16-16h40.129L256.003 38.176zm441.621 8.96h.21zm0 0" fill="#fff" data-original="#000000"/></svg>